HIERARCHY
ROOT Hips
{
  OFFSET 179.979 97.3047 303.174
  CHANNELS 6 Xposition Yposition Zposition Zrotation Xrotation Yrotation
  JOINT Spine
  {
    OFFSET 0.000859786 9.92346 -1.22733
    CHANNELS 3 Zrotation Xrotation Yrotation
    JOINT Spine1
    {
      OFFSET 0 11.732 0
      CHANNELS 3 Zrotation Xrotation Yrotation
      JOINT Spine2
      {
        OFFSET 0 13.4588 0
        CHANNELS 3 Zrotation Xrotation Yrotation
        JOINT Neck
        {
          OFFSET 2.54812e-05 15.0278 0.877907
          CHANNELS 3 Zrotation Xrotation Yrotation
          JOINT Head
          {
            OFFSET 0 10.3218 3.14243
            CHANNELS 3 Zrotation Xrotation Yrotation
            End Site
            {
              OFFSET 0 0 0
            }
          }
        }
        JOINT LeftShoulder
        {
          OFFSET 6.10582 9.10629 0.757062
          CHANNELS 3 Zrotation Xrotation Yrotation
          JOINT LeftArm
          {
            OFFSET 0 12.9223 0
            CHANNELS 3 Zrotation Xrotation Yrotation
            JOINT LeftForeArm
            {
              OFFSET 0 27.4047 0
              CHANNELS 3 Zrotation Xrotation Yrotation
              JOINT LeftHand
              {
                OFFSET -1.28204e-05 27.6145 0
                CHANNELS 3 Zrotation Xrotation Yrotation
                End Site
                {
                  OFFSET 0 0 0
                }
              }
            }
          }
        }
        JOINT RightShoulder
        {
          OFFSET -6.1057 9.10638 0.757076
          CHANNELS 3 Zrotation Xrotation Yrotation
          JOINT RightArm
          {
            OFFSET 0 12.9223 0
            CHANNELS 3 Zrotation Xrotation Yrotation
            JOINT RightForeArm
            {
              OFFSET 0 27.4047 0
              CHANNELS 3 Zrotation Xrotation Yrotation
              JOINT RightHand
              {
                OFFSET 1.28428e-05 27.6145 1.44975e-05
                CHANNELS 3 Zrotation Xrotation Yrotation
                End Site
                {
                  OFFSET 0 0 0
                }
              }
            }
          }
        }
      }
    }
  }
  JOINT LeftUpLeg
  {
    OFFSET 9.12387 -6.65719 -0.0554031
    CHANNELS 3 Zrotation Xrotation Yrotation
    JOINT LeftLeg
    {
      OFFSET 0 40.5994 0
      CHANNELS 3 Zrotation Xrotation Yrotation
      JOINT LeftFoot
      {
        OFFSET 0 42.099 0
        CHANNELS 3 Zrotation Xrotation Yrotation
        JOINT LeftToeBase
        {
          OFFSET 0 15.7216 0
          CHANNELS 3 Zrotation Xrotation Yrotation
          End Site
          {
            OFFSET 0 0 0
          }
        }
      }
    }
  }
  JOINT RightUpLeg
  {
    OFFSET -9.12503 -6.6556 -0.0553527
    CHANNELS 3 Zrotation Xrotation Yrotation
    JOINT RightLeg
    {
      OFFSET 0 40.5994 0
      CHANNELS 3 Zrotation Xrotation Yrotation
      JOINT RightFoot
      {
        OFFSET 0 42.099 0
        CHANNELS 3 Zrotation Xrotation Yrotation
        JOINT RightToeBase
        {
          OFFSET 0 15.7216 0
          CHANNELS 3 Zrotation Xrotation Yrotation
          End Site
          {
            OFFSET 0 0 0
          }
        }
      }
    }
  }
}
MOTION
Frames:	10
Frame Time:	0.0333333
74.116 93.5037 131.854 2.62935 1.45563 -4.28868 -0.296266 -5.82938 1.83769 -0.630667 2.28002 3.75434 -1.06672 8.86021 3.79675 -0.663114 0.991596 0.620012 -3.12617 -12.1193 0.811087 -98.586 -17.0789 89.8813 -23.045 55.9165 85.6742 29.4221 -3.61967 -0.281723 -12.7319 5.29969 9.68938 104.512 -10.312 -91.3253 -21.9097 49.1169 -7.3422 -62.3938 -11.8253 0.855059 1.02295 -14.8463 8.82077 -175.914 32.6263 -12.5197 -2.37002 -35.7258 -4.86621 12.3777 67.4231 -7.50773 -0.965278 26.367 -3.60229 171.404 8.8625 5.16693 -13.378 -60.7414 -16.0903 6.87094 59.592 -5.83324 0.963541 26.3682 3.55537 
74.952 94.2511 135.921 2.91855 0.721095 -4.18515 -0.355032 -5.72356 1.63222 -0.746851 2.49096 3.35953 -1.13716 9.07402 3.39891 -0.00247746 2.63302 1.48689 -3.99075 -12.0874 1.98476 -98.8225 -17.4189 89.816 -18.562 57.2697 82.4112 29.5049 -4.31783 -0.304526 -13.1257 3.92519 10.5627 104.528 -10.0962 -91.3742 -21.3546 51.9668 -9.99304 -55.2324 -13.3309 0.91618 2.61864 -13.9939 8.38518 -177.206 29.1974 -13.9858 -1.10942 -36.2598 -3.16901 11.6865 70.4635 -7.1258 -0.965278 26.367 -3.60229 171.848 14.3803 3.02446 -15.3096 -69.813 -13.5569 2.81158 57.0372 1.3762 0.963541 26.3682 3.55537 
75.6996 95.1377 139.858 3.34246 0.175419 -3.68068 -0.414568 -5.69501 1.31696 -0.859277 2.54866 2.7448 -1.17799 9.1355 2.77723 1.2309 4.21596 2.45028 -5.58742 -11.3437 3.58109 -99.0662 -17.7279 89.7548 -12.2224 58.6173 77.6588 29.6861 -5.02918 -0.327931 -11.361 0.941157 9.05474 104.789 -10.3423 -91.3305 -21.2926 53.7613 -13.6215 -47.0522 -14.1274 0.932609 4.09584 -12.9296 5.85056 -179.323 25.0644 -12.4761 -0.884934 -34.6314 -3.32158 13.3083 72.3019 -8.89304 -0.965278 26.367 -3.60229 172.478 19.7659 3.59336 -20.0035 -75.6874 -14.682 -4.51159 60.0974 6.57403 0.963541 26.3682 3.55537 
76.2908 95.9854 143.841 3.26309 0.0842749 -2.4267 -0.342645 -5.79892 0.980899 -0.706145 2.34493 2.05259 -0.944036 8.93514 2.07605 1.64144 6.3312 3.14083 -6.19186 -11.3965 4.53015 -99.5575 -17.5371 89.7769 -4.50129 59.247 71.3429 30.5374 -6.98529 -0.392453 -11.832 0.285793 6.93977 105.247 -10.6405 -91.2815 -19.3788 54.6324 -18.0815 -39.9011 -13.8301 0.891711 4.37265 -11.2306 2.95142 179.109 21.2531 -9.16073 -1.43115 -32.4944 -4.51694 16.0429 73.6184 -12.0729 -0.965278 26.367 -3.60229 172.996 24.4736 5.72871 -22.2018 -77.2401 -15.3003 -6.82017 61.7137 9.43195 0.963541 26.3682 3.55537 
76.7573 96.5691 147.77 3.50919 0.0194072 -0.825073 -0.351725 -5.85802 0.656462 -0.716611 2.22868 1.40554 -0.87899 8.82115 1.42122 2.24997 7.50009 3.71156 -6.38675 -10.9776 5.39211 -99.7069 -17.5334 89.7739 4.50797 59.4602 63.6363 31.6313 -9.26024 -0.469963 -11.1114 -0.875865 3.80804 105.327 -10.927 -91.2183 -15.8346 55.7589 -22.9703 -34.3986 -13.383 0.841477 5.06683 -8.8525 3.05503 177.42 17.3295 -6.28085 -1.50688 -30.0134 -5.166 18.3321 74.7078 -14.7721 -0.965278 26.367 -3.60229 172.565 28.4101 8.40535 -20.0812 -76.0117 -13.6417 -6.3228 64.3342 9.63227 0.963541 26.3682 3.55537 
77.1454 96.7303 151.755 3.86936 -0.0920262 1.02881 -0.384911 -5.85639 0.330629 -0.776204 2.23372 0.762374 -0.863621 8.82762 0.770839 3.28064 7.58202 4.04234 -7.39821 -9.88572 6.27721 -99.2311 -17.2934 89.8292 12.6917 59.69 54.0183 33.4473 -11.3608 -0.539468 -10.2842 -2.22804 2.00404 105.138 -11.4591 -91.0877 -11.407 57.0147 -26.6437 -30.4158 -12.8359 0.791263 6.74339 -5.90385 3.53974 176.138 13.6614 -5.44855 -0.89708 -28.4287 -4.4227 19.0665 76.4383 -15.6578 -0.965278 26.367 -3.60229 171.457 31.1337 11.0912 -15.1363 -72.0674 -10.4031 -2.10197 67.9291 7.60969 0.963541 26.3682 3.55537 
77.4346 96.5188 155.771 4.11998 -0.039977 3.19135 -0.416047 -5.85094 -0.0154772 -0.831266 2.24683 0.0781641 -0.838903 8.8413 0.0789338 4.4894 7.63978 4.16495 -9.16305 -10.0484 7.05216 -98.922 -16.7847 89.9269 19.8882 59.0317 44.2603 36.6532 -13.6668 -0.607541 -10.2312 -3.82476 1.04813 105.467 -12.0841 -90.951 -6.51934 57.1023 -29.551 -27.9971 -12.016 0.74103 8.523 -3.29277 4.40137 175.701 10.8581 -5.06966 -0.858247 -28.3752 -3.46401 19.9754 78.9116 -16.4802 -0.965278 26.367 -3.60229 170.43 32.9907 13.2296 -9.97332 -65.3829 -6.80594 2.55087 70.11 4.61544 0.963541 26.3682 3.55537 
77.6469 96.1037 159.8 4.51121 0.076264 5.8274 -0.533044 -5.80122 -0.435722 -1.05584 2.3497 -0.731491 -0.969013 8.94365 -0.74009 5.17673 7.14969 4.51114 -10.0661 -10.4684 7.70479 -98.6394 -16.3267 90.0121 26.2797 57.8282 35.2431 40.5018 -16.0463 -0.669528 -10.1096 -5.83466 0.302904 105.752 -12.8463 -90.7777 -2.15633 56.9596 -32.0579 -26.1035 -11.1126 0.691396 9.2821 -1.91227 4.5683 175.398 8.32654 -4.57007 -0.769038 -28.819 -2.24187 20.7457 81.628 -17.212 -0.965278 26.367 -3.60229 168.972 33.4648 14.9601 -6.18184 -55.6785 -5.41173 8.1791 71.0412 -0.708381 0.963541 26.3682 3.55537 
77.8469 95.808 163.795 4.2907 0.315785 8.6974 -0.567764 -5.77438 -0.851313 -1.11594 2.40752 -1.55352 -0.933203 8.99953 -1.57176 6.04459 6.41924 4.71411 -10.8208 -10.5647 8.25189 -98.018 -15.8912 90.0938 31.2842 56.7299 27.8063 44.651 -18.227 -0.713253 -8.16745 -8.97922 -0.473122 106.046 -13.7237 -90.5716 2.0519 56.7244 -34.1387 -24.8551 -10.1551 0.645654 10.1684 -0.750022 3.41622 176.02 5.71654 -3.79364 -0.891458 -28.6156 -1.0958 20.7822 83.9283 -17.1638 -0.965278 26.367 -3.60229 168.741 32.3848 16.0994 -4.85201 -42.1061 -5.24654 11.8271 69.8719 -3.97866 0.963541 26.3682 3.55537 
78.1089 95.534 167.776 3.93192 0.560096 11.0519 -0.576825 -5.77913 -1.11581 -1.12831 2.4007 -2.08031 -0.884171 8.99077 -2.10462 6.50014 6.16409 4.8943 -11.0516 -11.0101 8.56204 -97.4849 -15.4709 90.1674 34.2967 55.7784 20.4936 49.7789 -19.073 -0.671242 -6.73851 -11.4508 0.6073 105.877 -14.4715 -90.3893 6.41146 56.8261 -36.8174 -23.8523 -9.5235 0.613838 10.6762 -0.0696201 2.38492 176.868 2.96609 -2.43477 -1.3245 -27.9128 -0.729399 23.8645 85.6357 -20.2491 -0.965278 26.367 -3.60229 169.702 29.3263 12.9399 -3.60901 -25.5182 -3.83825 11.4018 69.9454 -4.45739 0.963541 26.3682 3.55537 
